<svg aria-hidden="true" style="position: absolute; width: 0; height: 0; overflow: hidden;" version="1.1" xmlns="http://www.w3.org/2000/svg" xmlns:xlink="http://www.w3.org/1999/xlink">
    <defs>
        <symbol id="icon-facebook-icon" viewBox="0 0 32 32">
            <title>facebook-icon</title>
                <path d="M19 23.938c0 2.512-0.006 5.019 0.006 7.531 0 0.275-0.075 0.35-0.35 0.344-2.137-0.012-4.269-0.012-6.406 0-0.294 0-0.387-0.069-0.387-0.375 0.012-4.981 0.006-9.956 0.006-14.938 0-0.5 0.056-0.438-0.456-0.444-0.906 0-1.813-0.006-2.719 0.006-0.219 0-0.281-0.069-0.281-0.287 0.006-1.581 0.006-3.169 0-4.75 0-0.219 0.063-0.287 0.281-0.281 0.95 0.012 1.894-0.006 2.844 0.012 0.256 0.006 0.338-0.063 0.338-0.331-0.012-1.331 0-2.669-0.006-4-0.006-1.106 0.162-2.175 0.719-3.15 0.6-1.063 1.5-1.794 2.612-2.269 0.938-0.4 1.925-0.588 2.938-0.644 2.006-0.112 4.019-0.019 6.025-0.056 0.225-0.006 0.281 0.075 0.281 0.287-0.006 1.644-0.006 3.294 0 4.938 0 0.25-0.094 0.287-0.313 0.287-1.156-0.006-2.313-0.006-3.469-0.006-0.962 0-1.656 0.694-1.656 1.644 0 0.981 0.012 1.956-0.006 2.938-0.006 0.281 0.087 0.35 0.356 0.35 1.581-0.012 3.169 0 4.75-0.012 0.262 0 0.35 0.075 0.319 0.338-0.094 0.806-0.175 1.613-0.262 2.419-0.081 0.775-0.219 1.544-0.344 2.313-0.038 0.219-0.106 0.269-0.306 0.269-1.356-0.006-2.706-0.006-4.063 0-0.531 0-0.456-0.069-0.456 0.469 0.006 2.462 0.006 4.931 0.006 7.4z"></path>
        </symbol>
        <symbol id="icon-instagram-icon" viewBox="0 0 34 32">
            <title>instagram-icon</title>
                <path d="M27.507 3.404h-3.269c-0.976 0-1.77 0.794-1.77 1.77v3.269c0 0.976 0.794 1.77 1.77 1.77h3.269c0.976 0 1.77-0.794 1.77-1.77v-3.269c0-0.976-0.794-1.77-1.77-1.77zM27.915 8.443c0 0.225-0.183 0.408-0.408 0.408h-3.269c-0.225 0-0.408-0.183-0.408-0.408v-3.269c0-0.225 0.183-0.408 0.408-0.408h3.269c0.225 0 0.408 0.183 0.408 0.408v3.269z"></path>
                <path d="M25.736 0h-18.791c-3.829 0-6.945 3.125-6.945 6.966v18.069c0 3.841 3.116 6.965 6.945 6.965h18.791c3.829 0 6.945-3.125 6.945-6.965v-18.069c0-3.841-3.116-6.966-6.945-6.966zM31.319 25.035c0 3.090-2.505 5.604-5.583 5.604h-18.791c-3.078 0-5.583-2.514-5.583-5.604v-12.098h8.32c-1.77 1.732-2.874 4.142-2.874 6.808 0 5.256 4.276 9.532 9.532 9.532s9.532-4.276 9.532-9.532c0-2.666-1.103-5.077-2.874-6.809h8.32v12.098zM24.511 19.745c0 4.505-3.665 8.17-8.17 8.17s-8.17-3.665-8.17-8.17c0-4.505 3.665-8.17 8.17-8.17s8.17 3.665 8.17 8.17zM21.225 11.574c-1.431-0.859-3.098-1.362-4.884-1.362s-3.454 0.503-4.884 1.362h-10.094v-4.609c0-3.090 2.505-5.604 5.583-5.604h18.791c3.078 0 5.583 2.514 5.583 5.604v4.609h-10.094z"></path>
                <path d="M10.213 19.745c0 3.379 2.749 6.128 6.128 6.128s6.128-2.749 6.128-6.128c0-3.379-2.749-6.128-6.128-6.128s-6.128 2.749-6.128 6.128zM21.106 19.745c0 2.628-2.138 4.766-4.766 4.766s-4.766-2.138-4.766-4.766c0-2.628 2.138-4.766 4.766-4.766s4.766 2.138 4.766 4.766z"></path>
        </symbol>
        <symbol id="icon-pinterest-icon" viewBox="0 0 32 32">
            <title>pinterest-icon</title>
                <path d="M14.769 20.988c-0.119 0.481-0.225 0.906-0.331 1.331-0.119 0.488-0.231 0.975-0.344 1.462-0.137 0.594-0.244 1.194-0.419 1.769-0.25 0.819-0.5 1.637-0.838 2.419-0.313 0.719-0.725 1.4-1.119 2.081-0.325 0.556-0.694 1.094-1.056 1.631-0.056 0.081-0.213 0.163-0.281 0.137-0.088-0.031-0.188-0.169-0.2-0.269-0.238-1.894-0.363-3.8-0.113-5.7 0.1-0.769 0.306-1.519 0.463-2.281 0.1-0.5 0.2-1.006 0.306-1.512 0.131-0.619 0.269-1.244 0.406-1.863 0.2-0.913 0.406-1.819 0.613-2.731 0.169-0.731 0.331-1.469 0.512-2.2 0.088-0.35-0.094-0.637-0.175-0.95-0.269-1.075-0.438-2.144-0.238-3.262 0.144-0.806 0.356-1.575 0.813-2.256 0.594-0.888 1.394-1.469 2.525-1.406 0.969 0.056 1.644 0.688 1.894 1.581 0.281 0.988 0.156 1.975-0.1 2.95-0.275 1.063-0.569 2.113-0.837 3.175-0.169 0.662-0.412 1.325-0.45 2-0.056 1.006 0.337 1.887 1.219 2.456 0.7 0.45 1.444 0.538 2.269 0.337 1.094-0.269 1.85-0.95 2.488-1.813 0.756-1.019 1.181-2.175 1.512-3.394 0.406-1.512 0.563-3.037 0.531-4.594-0.025-1.438-0.406-2.769-1.219-3.956-0.613-0.888-1.419-1.55-2.419-1.987-0.637-0.281-1.269-0.525-1.969-0.556-0.756-0.031-1.519-0.163-2.262-0.087-2.244 0.244-4.1 1.231-5.5 3.031-0.556 0.719-1 1.5-1.294 2.344-0.45 1.3-0.65 2.65-0.519 4.031 0.094 0.969 0.375 1.9 1.012 2.65 0.438 0.513 0.356 1.013 0.206 1.562-0.081 0.288-0.156 0.575-0.219 0.869-0.106 0.525-0.4 0.794-1.006 0.5-1.213-0.587-1.981-1.556-2.519-2.756-0.75-1.681-0.881-3.456-0.706-5.244 0.206-2.025 0.987-3.856 2.188-5.5 0.869-1.188 1.95-2.15 3.213-2.906 0.988-0.594 2.037-1.012 3.15-1.3 1.444-0.375 2.906-0.487 4.375-0.369 1.1 0.088 2.163 0.35 3.194 0.775 1.781 0.738 3.238 1.869 4.375 3.412 0.675 0.919 1.194 1.925 1.531 3.025 0.2 0.65 0.369 1.3 0.387 1.981 0.025 0.769 0.113 1.537 0.069 2.294-0.044 0.806-0.206 1.613-0.331 2.412-0.206 1.325-0.65 2.575-1.244 3.769-0.512 1.025-1.156 1.956-1.988 2.762-0.837 0.813-1.8 1.419-2.9 1.819-1.044 0.381-2.113 0.519-3.2 0.387-1.294-0.163-2.387-0.744-3.206-1.794-0.056-0.063-0.144-0.15-0.25-0.269z"></path>
        </symbol>
        <symbol id="icon-twitter-icon" viewBox="0 0 32 32">
            <title>twitter-icon</title>
                <path d="M0.219 26.337c3.5 0.319 6.631-0.556 9.469-2.681-0.438-0.1-0.838-0.1-1.219-0.194-2.231-0.531-3.775-1.875-4.681-3.969-0.044-0.106-0.156-0.238-0.056-0.344 0.075-0.081 0.219-0.012 0.325 0 0.787 0.081 1.575 0.056 2.35-0.125 0.013-0.137-0.088-0.125-0.162-0.15-1.919-0.512-3.313-1.656-4.213-3.425-0.413-0.813-0.637-1.662-0.663-2.575-0.012-0.356 0.006-0.363 0.337-0.206 0.788 0.375 1.612 0.588 2.556 0.631-0.431-0.35-0.819-0.656-1.15-1.025-1.006-1.119-1.569-2.425-1.688-3.931-0.094-1.225 0.163-2.369 0.694-3.469 0.119-0.244 0.225-0.225 0.375-0.044 1.044 1.275 2.263 2.356 3.606 3.294 1 0.7 2.063 1.281 3.181 1.775 1.475 0.644 3.006 1.075 4.594 1.331 0.5 0.081 1.012 0.1 1.519 0.15 0.256 0.025 0.325-0.050 0.275-0.313-0.256-1.35-0.081-2.662 0.506-3.894 1.006-2.1 2.694-3.375 4.988-3.712 2.038-0.3 3.869 0.281 5.387 1.712 0.231 0.219 0.438 0.275 0.75 0.194 1.225-0.313 2.394-0.756 3.494-1.381 0.031-0.019 0.069-0.025 0.181-0.069-0.512 1.506-1.419 2.619-2.688 3.469 0.294 0.056 1.163-0.1 1.762-0.287 0.575-0.181 1.15-0.344 1.7-0.588 0.075 0.081 0.006 0.125-0.025 0.169-0.731 1.031-1.569 1.962-2.569 2.737-0.137 0.106-0.269 0.225-0.413 0.325-0.106 0.075-0.113 0.169-0.106 0.275 0.044 1.137-0.038 2.269-0.2 3.388-0.169 1.144-0.456 2.256-0.837 3.35-0.313 0.894-0.681 1.762-1.119 2.606-1.081 2.075-2.488 3.9-4.244 5.456-1.869 1.65-3.994 2.837-6.369 3.575-1.481 0.462-3 0.731-4.556 0.813-1.2 0.063-2.394 0.044-3.581-0.106-1.7-0.206-3.337-0.669-4.912-1.344-0.806-0.344-1.569-0.756-2.331-1.188-0.106-0.044-0.213-0.094-0.269-0.231z"></path>
        </symbol>
        <symbol id="icon-instagram" viewBox="0 0 32 32">
            <title>instagram</title>
                <path d="M16 2.881c4.275 0 4.781 0.019 6.462 0.094 1.563 0.069 2.406 0.331 2.969 0.55 0.744 0.288 1.281 0.638 1.837 1.194 0.563 0.563 0.906 1.094 1.2 1.838 0.219 0.563 0.481 1.412 0.55 2.969 0.075 1.688 0.094 2.194 0.094 6.463s-0.019 4.781-0.094 6.463c-0.069 1.563-0.331 2.406-0.55 2.969-0.288 0.744-0.637 1.281-1.194 1.837-0.563 0.563-1.094 0.906-1.837 1.2-0.563 0.219-1.413 0.481-2.969 0.55-1.688 0.075-2.194 0.094-6.463 0.094s-4.781-0.019-6.463-0.094c-1.563-0.069-2.406-0.331-2.969-0.55-0.744-0.288-1.281-0.637-1.838-1.194-0.563-0.563-0.906-1.094-1.2-1.837-0.219-0.563-0.481-1.413-0.55-2.969-0.075-1.688-0.094-2.194-0.094-6.463s0.019-4.781 0.094-6.463c0.069-1.563 0.331-2.406 0.55-2.969 0.288-0.744 0.638-1.281 1.194-1.838 0.563-0.563 1.094-0.906 1.838-1.2 0.563-0.219 1.412-0.481 2.969-0.55 1.681-0.075 2.188-0.094 6.463-0.094zM16 0c-4.344 0-4.887 0.019-6.594 0.094-1.7 0.075-2.869 0.35-3.881 0.744-1.056 0.412-1.95 0.956-2.837 1.85-0.894 0.888-1.438 1.781-1.85 2.831-0.394 1.019-0.669 2.181-0.744 3.881-0.075 1.713-0.094 2.256-0.094 6.6s0.019 4.887 0.094 6.594c0.075 1.7 0.35 2.869 0.744 3.881 0.413 1.056 0.956 1.95 1.85 2.837 0.887 0.887 1.781 1.438 2.831 1.844 1.019 0.394 2.181 0.669 3.881 0.744 1.706 0.075 2.25 0.094 6.594 0.094s4.888-0.019 6.594-0.094c1.7-0.075 2.869-0.35 3.881-0.744 1.050-0.406 1.944-0.956 2.831-1.844s1.438-1.781 1.844-2.831c0.394-1.019 0.669-2.181 0.744-3.881 0.075-1.706 0.094-2.25 0.094-6.594s-0.019-4.887-0.094-6.594c-0.075-1.7-0.35-2.869-0.744-3.881-0.394-1.063-0.938-1.956-1.831-2.844-0.887-0.887-1.781-1.438-2.831-1.844-1.019-0.394-2.181-0.669-3.881-0.744-1.712-0.081-2.256-0.1-6.6-0.1v0z"></path>
                <path d="M16 7.781c-4.537 0-8.219 3.681-8.219 8.219s3.681 8.219 8.219 8.219 8.219-3.681 8.219-8.219c0-4.537-3.681-8.219-8.219-8.219zM16 21.331c-2.944 0-5.331-2.387-5.331-5.331s2.387-5.331 5.331-5.331c2.944 0 5.331 2.387 5.331 5.331s-2.387 5.331-5.331 5.331z"></path>
                <path d="M26.462 7.456c0 1.060-0.859 1.919-1.919 1.919s-1.919-0.859-1.919-1.919c0-1.060 0.859-1.919 1.919-1.919s1.919 0.859 1.919 1.919z"></path>
        </symbol>
    </defs>
</svg>
