<svg xmlns="http://www.w3.org/2000/svg" xmlns:xlink="http://www.w3.org/1999/xlink"><symbol id="icon-facebook" viewBox="0 0 512 512">
     <path d="M304,383c0,40.2-0.1,80.3,0.1,120.5c0,4.4-1.2,5.6-5.6,5.5c-34.2-0.2-68.3-0.2-102.5,0   c-4.7,0-6.2-1.1-6.2-6c0.2-79.7,0.1-159.3,0.1-239c0-8,0.9-7-7.3-7.1c-14.5,0-29-0.1-43.5,0.1c-3.5,0-4.5-1.1-4.5-4.6   c0.1-25.3,0.1-50.7,0-76c0-3.5,1-4.6,4.5-4.5c15.2,0.2,30.3-0.1,45.5,0.2c4.1,0.1,5.4-1,5.4-5.3c-0.2-21.3,0-42.7-0.1-64   c-0.1-17.7,2.6-34.8,11.5-50.4c9.6-17,24-28.7,41.8-36.3c15-6.4,30.8-9.4,47-10.3c32.1-1.8,64.3-0.3,96.4-0.9   c3.6-0.1,4.5,1.2,4.5,4.6c-0.1,26.3-0.1,52.7,0,79c0,4-1.5,4.6-5,4.6c-18.5-0.1-37-0.1-55.5-0.1c-15.4,0-26.5,11.1-26.5,26.3   c0,15.7,0.2,31.3-0.1,47c-0.1,4.5,1.4,5.6,5.7,5.6c25.3-0.2,50.7,0,76-0.2c4.2,0,5.6,1.2,5.1,5.4c-1.5,12.9-2.8,25.8-4.2,38.7   c-1.3,12.4-3.5,24.7-5.5,37c-0.6,3.5-1.7,4.3-4.9,4.3c-21.7-0.1-43.3-0.1-65,0c-8.5,0-7.3-1.1-7.3,7.5C304,304,304,343.5,304,383z"/>
</symbol><symbol id="icon-instagram" viewBox="0 0 198 188">
     <path d="M161.6015,20h-19.2032C136.664,20,132,24.664,132,30.3985v19.2032C132,55.336,136.664,60,142.3983,60h19.2032   C167.336,60,172,55.336,172,49.6017V30.3985C172,24.664,167.336,20,161.6015,20z M164,49.6017C164,50.924,162.9255,52,161.6015,52   h-19.2032C141.0743,52,140,50.924,140,49.6017V30.3985C140,29.076,141.0743,28,142.3983,28h19.2032   c1.324,0,2.3985,1.076,2.3985,2.3985V49.6017z"/>
     <path d="M151.1991,0H40.8007C18.3047,0,0,18.3577,0,40.924V68v8v71.0781C0,169.6425,18.3047,188,40.8007,188h110.3984   C173.6951,188,192,169.6425,192,147.0781V76v-8V40.924C192,18.3577,173.6951,0,151.1991,0z M184,147.0781   C184,165.2305,169.2851,180,151.1991,180H40.8007C22.7147,180,8,165.2305,8,147.0781V76h48.8827C46.4819,86.1733,40,100.336,40,116   c0,30.8789,25.1211,56,56,56c30.8787,0,56-25.1211,56-56c0-15.664-6.4821-29.8267-16.8829-40H184V147.0781z M144,116   c0,26.4669-21.5313,48-48,48c-26.4689,0-48-21.5331-48-48c0-26.4667,21.5311-48,48-48C122.4687,68,144,89.5333,144,116z    M124.6955,68C116.2903,62.956,106.496,60,96,60s-20.2905,2.956-28.6957,8H8V40.924C8,22.7697,22.7147,8,40.8007,8h110.3984   C169.2851,8,184,22.7697,184,40.924V68H124.6955z"/>
     <path d="M60,116c0,19.8497,16.1483,36,36,36c19.8515,0,36-16.1503,36-36c0-19.8495-16.1485-36-36-36C76.1483,80,60,96.1505,60,116z    M124,116c0,15.4397-12.5625,28-28,28c-15.4377,0-28-12.5603-28-28c0-15.4395,12.5623-28,28-28C111.4375,88,124,100.5605,124,116z"/>
</symbol><symbol id="icon-pinterest" viewBox="0 0 512 512">
     <path d="M236.3,335.8c-1.9,7.7-3.6,14.5-5.3,21.3c-1.9,7.8-3.7,15.6-5.5,23.4c-2.2,9.5-3.9,19.1-6.7,28.3c-4,13.1-8,26.2-13.4,38.7   c-5,11.5-11.6,22.4-17.9,33.3c-5.2,8.9-11.1,17.5-16.9,26.1c-0.9,1.3-3.4,2.6-4.5,2.2c-1.4-0.5-3-2.7-3.2-4.3   c-3.8-30.3-5.8-60.8-1.8-91.2c1.6-12.3,4.9-24.3,7.4-36.5c1.6-8,3.2-16.1,4.9-24.2c2.1-9.9,4.3-19.9,6.5-29.8   c3.2-14.6,6.5-29.1,9.8-43.7c2.7-11.7,5.3-23.5,8.2-35.2c1.4-5.6-1.5-10.2-2.8-15.2c-4.3-17.2-7-34.3-3.8-52.2   c2.3-12.9,5.7-25.2,13-36.1c9.5-14.2,22.3-23.5,40.4-22.5c15.5,0.9,26.3,11,30.3,25.3c4.5,15.8,2.5,31.6-1.6,47.2   c-4.4,17-9.1,33.8-13.4,50.8c-2.7,10.6-6.6,21.2-7.2,32c-0.9,16.1,5.4,30.2,19.5,39.3c11.2,7.2,23.1,8.6,36.3,5.4   c17.5-4.3,29.6-15.2,39.8-29c12.1-16.3,18.9-34.8,24.2-54.3c6.5-24.2,9-48.6,8.5-73.5c-0.4-23-6.5-44.3-19.5-63.3   c-9.8-14.2-22.7-24.8-38.7-31.8c-10.2-4.5-20.3-8.4-31.5-8.9c-12.1-0.5-24.3-2.6-36.2-1.4c-35.9,3.9-65.6,19.7-88,48.5   c-8.9,11.5-16,24-20.7,37.5c-7.2,20.8-10.4,42.4-8.3,64.5c1.5,15.5,6,30.4,16.2,42.4c7,8.2,5.7,16.2,3.3,25   c-1.3,4.6-2.5,9.2-3.5,13.9c-1.7,8.4-6.4,12.7-16.1,8c-19.4-9.4-31.7-24.9-40.3-44.1c-12-26.9-14.1-55.3-11.3-83.9   c3.3-32.4,15.8-61.7,35-88c13.9-19,31.2-34.4,51.4-46.5c15.8-9.5,32.6-16.2,50.4-20.8c23.1-6,46.5-7.8,70-5.9   c17.6,1.4,34.6,5.6,51.1,12.4c28.5,11.8,51.8,29.9,70,54.6c10.8,14.7,19.1,30.8,24.5,48.4c3.2,10.4,5.9,20.8,6.2,31.7   c0.4,12.3,1.8,24.6,1.1,36.7c-0.7,12.9-3.3,25.8-5.3,38.6c-3.3,21.2-10.4,41.2-19.9,60.3c-8.2,16.4-18.5,31.3-31.8,44.2   c-13.4,13-28.8,22.7-46.4,29.1c-16.7,6.1-33.8,8.3-51.2,6.2c-20.7-2.6-38.2-11.9-51.3-28.7C239.4,339.1,238,337.7,236.3,335.8z"/>
</symbol><symbol id="icon-twitter" viewBox="0 0 512 512">
     <path d="M3.5,421.4c56,5.1,106.1-8.9,151.5-42.9c-7-1.6-13.4-1.6-19.5-3.1c-35.7-8.5-60.4-30-74.9-63.5   c-0.7-1.7-2.5-3.8-0.9-5.5c1.2-1.3,3.5-0.2,5.2,0c12.6,1.3,25.2,0.9,37.6-2c0.2-2.2-1.4-2-2.6-2.4c-30.7-8.2-53-26.5-67.4-54.8   c-6.6-13-10.2-26.6-10.6-41.2c-0.2-5.7,0.1-5.8,5.4-3.3c12.6,6,25.8,9.4,40.9,10.1c-6.9-5.6-13.1-10.5-18.4-16.4   c-16.1-17.9-25.1-38.8-27-62.9c-1.5-19.6,2.6-37.9,11.1-55.5c1.9-3.9,3.6-3.6,6-0.7C56.6,97.7,76.1,115,97.6,130   c16,11.2,33,20.5,50.9,28.4c23.6,10.3,48.1,17.2,73.5,21.3c8,1.3,16.2,1.6,24.3,2.4c4.1,0.4,5.2-0.8,4.4-5   c-4.1-21.6-1.3-42.6,8.1-62.3c16.1-33.6,43.1-54,79.8-59.4c32.6-4.8,61.9,4.5,86.2,27.4c3.7,3.5,7,4.4,12,3.1   c19.6-5,38.3-12.1,55.9-22.1c0.5-0.3,1.1-0.4,2.9-1.1c-8.2,24.1-22.7,41.9-43,55.5c4.7,0.9,18.6-1.6,28.2-4.6   c9.2-2.9,18.4-5.5,27.2-9.4c1.2,1.3,0.1,2-0.4,2.7c-11.7,16.5-25.1,31.4-41.1,43.8c-2.2,1.7-4.3,3.6-6.6,5.2   c-1.7,1.2-1.8,2.7-1.7,4.4c0.7,18.2-0.6,36.3-3.2,54.2c-2.7,18.3-7.3,36.1-13.4,53.6c-5,14.3-10.9,28.2-17.9,41.7   c-17.3,33.2-39.8,62.4-67.9,87.3c-29.9,26.4-63.9,45.4-101.9,57.2c-23.7,7.4-48,11.7-72.9,13c-19.2,1-38.3,0.7-57.3-1.7   c-27.2-3.3-53.4-10.7-78.6-21.5c-12.9-5.5-25.1-12.1-37.3-19C6.1,424.4,4.4,423.6,3.5,421.4z"/>
</symbol></svg>